<svg width="51" height="52" viewBox="0 0 51 52" fill="none" xmlns="http://www.w3.org/2000/svg">
<path d="M36.8725 2.49333C36.6724 2.5775 36.4704 2.65979 36.2646 2.74022C30.4889 4.99774 24.1297 4.99587 18.3558 2.74022C17.0933 2.24644 15.8776 1.65354 14.7236 0.963379L13.693 1.99395L6.65291 9.03397L5.63917 10.0477C6.45278 10.635 7.29071 11.1886 8.14921 11.7048C9.21906 12.3482 10.317 12.9374 11.4429 13.4686C12.0695 13.766 12.7036 14.0409 13.3451 14.3028C14.9087 14.9368 16.5154 15.4605 18.1519 15.8757C18.6588 16.0048 19.1676 16.1226 19.68 16.2292C22.177 16.7511 24.7338 17.0185 27.313 17.0185C29.8305 17.0185 32.3256 16.7642 34.7664 16.2666C34.8319 16.2536 34.8955 16.2405 34.9591 16.2274C35.4042 16.1357 35.8457 16.0328 36.2871 15.9244C36.3525 15.9094 36.4199 15.8926 36.4853 15.8757C39.9006 15.0098 43.1831 13.6575 46.2318 11.8545L36.8744 2.49707L36.8725 2.49333Z" fill="url(#paint0_linear_227_240)"/>
<path d="M38.6287 38.522C38.004 38.2246 37.37 37.9478 36.7303 37.6878C35.1686 37.0538 33.5619 36.5282 31.9197 36.113C31.4147 35.9858 30.906 35.868 30.3935 35.7633C27.9059 35.2452 25.3491 34.9814 22.7493 34.9814C20.2187 34.9814 17.7292 35.2321 15.3071 35.724C15.2416 35.7371 15.178 35.7502 15.1145 35.7633C14.6693 35.8549 14.226 35.9559 13.7865 36.0644C13.721 36.0793 13.6537 36.0962 13.5882 36.113C10.1542 36.979 6.87361 38.3331 3.82864 40.1418L4.86483 41.1779L12.1106 48.4237L13.1861 49.4992C16.1731 48.2385 19.4107 47.5764 22.7493 47.5764C27.255 47.5764 31.5737 48.7809 35.3406 51.0366L36.3712 50.006L43.4132 42.9641L44.4269 41.9504C42.5939 40.6262 40.6544 39.4815 38.6287 38.5239V38.522Z" fill="url(#paint1_linear_227_240)"/>
<path d="M45.4911 40.8842L50.0698 36.3056C49.3796 35.1497 48.7849 33.9358 48.2911 32.6696C46.0354 26.8939 46.0354 20.5347 48.2911 14.7609C48.3696 14.5589 48.4519 14.3569 48.5361 14.1587L43.7667 9.38926L40.213 5.83558L39.1786 4.80127C37.3737 7.84995 36.0233 11.1324 35.1573 14.5458C35.1405 14.6113 35.1237 14.6786 35.1068 14.746C34.9984 15.1874 34.8974 15.6288 34.8038 16.0739C34.7908 16.1394 34.7777 16.203 34.7646 16.2666C34.2671 18.7055 34.0127 21.2006 34.0127 23.7162C34.0127 26.2973 34.2801 28.8559 34.8038 31.3547C34.9105 31.8672 35.0283 32.376 35.1573 32.8828C35.5726 34.5194 36.0963 36.1241 36.7303 37.6896C36.9903 38.3312 37.2671 38.9652 37.5645 39.5918C38.0938 40.714 38.6811 41.8119 39.3245 42.8799C39.8408 43.7384 40.3944 44.5782 40.9835 45.3936L41.9973 44.3799L45.4893 40.8879L45.4911 40.8842Z" fill="url(#paint2_linear_227_240)"/>
<path d="M15.2697 20.6377C15.1631 20.1271 15.0453 19.6165 14.9181 19.1115C14.5029 17.4712 13.9773 15.8645 13.3451 14.3028C13.0851 13.6613 12.8064 13.0272 12.5109 12.4025C11.5533 10.3788 10.4086 8.43736 9.08626 6.60254L8.07252 7.61627L1.03057 14.6582L0 15.6887C2.25567 19.4556 3.45831 23.7743 3.45831 28.28C3.45831 31.6186 2.7962 34.858 1.5337 37.8431L2.61104 38.9204L9.85685 46.1662L10.893 47.2024C12.7017 44.1574 14.0558 40.875 14.9218 37.441C14.9386 37.3755 14.9555 37.3082 14.9704 37.2427C15.0789 36.8032 15.1799 36.3599 15.2716 35.9167C15.2847 35.8531 15.2978 35.7895 15.3108 35.724C15.8009 33.3019 16.0534 30.8106 16.0534 28.2819C16.0534 25.6821 15.7878 23.1253 15.2716 20.6396L15.2697 20.6377Z" fill="url(#paint3_linear_227_240)"/>
<defs>
<linearGradient id="paint0_linear_227_240" x1="33.0625" y1="9.94671" x2="6.78945" y2="7.31882" gradientUnits="userSpaceOnUse">
<stop stop-color="#FC8A0A"/>
<stop offset="1" stop-color="#FCDE1E"/>
</linearGradient>
<linearGradient id="paint1_linear_227_240" x1="3.82864" y1="43.0071" x2="44.4269" y2="43.0071" gradientUnits="userSpaceOnUse">
<stop stop-color="#FC8A0A"/>
<stop offset="1" stop-color="#FCDE1E"/>
</linearGradient>
<linearGradient id="paint2_linear_227_240" x1="42.2722" y1="36.5001" x2="41.0771" y2="4.73207" gradientUnits="userSpaceOnUse">
<stop stop-color="#FC8A0A"/>
<stop offset="1" stop-color="#FCDE1E"/>
</linearGradient>
<linearGradient id="paint3_linear_227_240" x1="8.17726" y1="13.4967" x2="7.69845" y2="40.7253" gradientUnits="userSpaceOnUse">
<stop stop-color="#FC8A0A"/>
<stop offset="1" stop-color="#FCDE1E"/>
</linearGradient>
</defs>
</svg>
